<mxfile host="app.diagrams.net" modified="2023-10-15T16:02:01.939Z" agent="Mozilla/5.0 (Windows NT 10.0; Win64; x64) AppleWebKit/537.36 (KHTML, like Gecko) Chrome/117.0.0.0 Safari/537.36" etag="9MtAhfkF-F7w_jCI6pOb" version="22.0.4" type="device">
  <diagram name="PÃ¡gina-1" id="SmJE9D64vubkvxC9qLt7">
    <mxGraphModel dx="954" dy="610" grid="1" gridSize="10" guides="1" tooltips="1" connect="1" arrows="1" fold="1" page="1" pageScale="1" pageWidth="827" pageHeight="1169" math="0" shadow="0">
      <root>
        <mxCell id="0" />
        <mxCell id="1" parent="0" />
        <mxCell id="9EmgTGiWLBgWvlBg7fOt-16" style="edgeStyle=orthogonalEdgeStyle;rounded=0;orthogonalLoop=1;jettySize=auto;html=1;exitX=0.5;exitY=1;exitDx=0;exitDy=0;entryX=0.5;entryY=0;entryDx=0;entryDy=0;" edge="1" parent="1" source="9EmgTGiWLBgWvlBg7fOt-2" target="9EmgTGiWLBgWvlBg7fOt-14">
          <mxGeometry relative="1" as="geometry" />
        </mxCell>
        <mxCell id="9EmgTGiWLBgWvlBg7fOt-2" value="&lt;div style=&quot;font-family: Consolas, &amp;quot;Courier New&amp;quot;, monospace; font-size: 14px; line-height: 19px;&quot;&gt;&lt;div style=&quot;&quot;&gt;result = 100&lt;/div&gt;&lt;div style=&quot;&quot;&gt;( result &amp;gt; 0)&lt;/div&gt;&lt;/div&gt;" style="rhombus;whiteSpace=wrap;html=1;" vertex="1" parent="1">
          <mxGeometry x="170" y="280" width="280" height="200" as="geometry" />
        </mxCell>
        <mxCell id="9EmgTGiWLBgWvlBg7fOt-12" style="edgeStyle=orthogonalEdgeStyle;rounded=0;orthogonalLoop=1;jettySize=auto;html=1;entryX=0.5;entryY=0;entryDx=0;entryDy=0;" edge="1" parent="1" source="9EmgTGiWLBgWvlBg7fOt-3" target="9EmgTGiWLBgWvlBg7fOt-2">
          <mxGeometry relative="1" as="geometry" />
        </mxCell>
        <mxCell id="9EmgTGiWLBgWvlBg7fOt-3" value="&lt;div style=&quot;border-color: var(--border-color); font-family: Consolas, &amp;quot;Courier New&amp;quot;, monospace; font-size: 14px; line-height: 19px;&quot;&gt;&lt;div style=&quot;border-color: var(--border-color);&quot;&gt;&lt;div style=&quot;line-height: 19px;&quot;&gt;result = result - 2&lt;/div&gt;&lt;/div&gt;&lt;/div&gt;&lt;font style=&quot;border-color: var(--border-color);&quot;&gt;&lt;/font&gt;" style="rounded=0;whiteSpace=wrap;html=1;" vertex="1" parent="1">
          <mxGeometry x="170" y="180" width="280" height="50" as="geometry" />
        </mxCell>
        <mxCell id="9EmgTGiWLBgWvlBg7fOt-10" style="edgeStyle=orthogonalEdgeStyle;rounded=0;orthogonalLoop=1;jettySize=auto;html=1;exitX=0;exitY=0.5;exitDx=0;exitDy=0;entryX=0.007;entryY=0.4;entryDx=0;entryDy=0;entryPerimeter=0;" edge="1" parent="1">
          <mxGeometry relative="1" as="geometry">
            <mxPoint x="170.00000000000003" y="200" as="targetPoint" />
            <mxPoint x="168.04" y="380" as="sourcePoint" />
            <Array as="points">
              <mxPoint x="168.04" y="381" />
              <mxPoint x="89.04" y="381" />
              <mxPoint x="89.04" y="204" />
              <mxPoint x="158.04" y="204" />
              <mxPoint x="158.04" y="200" />
            </Array>
          </mxGeometry>
        </mxCell>
        <mxCell id="9EmgTGiWLBgWvlBg7fOt-15" style="edgeStyle=orthogonalEdgeStyle;rounded=0;orthogonalLoop=1;jettySize=auto;html=1;exitX=0.5;exitY=1;exitDx=0;exitDy=0;entryX=0.5;entryY=0;entryDx=0;entryDy=0;" edge="1" parent="1" source="9EmgTGiWLBgWvlBg7fOt-13" target="9EmgTGiWLBgWvlBg7fOt-3">
          <mxGeometry relative="1" as="geometry" />
        </mxCell>
        <mxCell id="9EmgTGiWLBgWvlBg7fOt-13" value="inicio" style="ellipse;whiteSpace=wrap;html=1;" vertex="1" parent="1">
          <mxGeometry x="250" y="60" width="120" height="80" as="geometry" />
        </mxCell>
        <mxCell id="9EmgTGiWLBgWvlBg7fOt-14" value="fim" style="ellipse;whiteSpace=wrap;html=1;" vertex="1" parent="1">
          <mxGeometry x="250" y="520" width="120" height="80" as="geometry" />
        </mxCell>
      </root>
    </mxGraphModel>
  </diagram>
</mxfile>
